<?xml version="1.0" encoding="utf-8"?>
<!-- Generator: Adobe Illustrator 16.0.0, SVG Export Plug-In . SVG Version: 6.00 Build 0)  -->
<!DOCTYPE svg PUBLIC "-//W3C//DTD SVG 1.1//EN" "http://www.w3.org/Graphics/SVG/1.1/DTD/svg11.dtd">
<svg version="1.1" id="Layer_1" xmlns="http://www.w3.org/2000/svg" xmlns:xlink="http://www.w3.org/1999/xlink" x="0px" y="0px"
	 width="1570px" height="768px" viewBox="0 0 1570 768" enable-background="new 0 0 1570 768" xml:space="preserve">
<g>
	<path fill="none" stroke="#6b38fb" stroke-miterlimit="10" d="M0,229.597c0,0,93.624,308.984,584.099,158.992
		S1286.063-40.39,1566.55,253.596"/>
	<path fill="none" stroke="#6b38fb" stroke-miterlimit="10" d="M0,254.634c0,0,113.584,305.753,597.252,122.647
		c455.054-141.57,677.39-433.709,969.298-105.457"/>
	<path fill="none" stroke="#6b38fb" stroke-miterlimit="10" d="M0,279.672c0,0,133.545,302.522,610.405,86.303
		c419.633-133.147,652.813-438.439,956.145-75.919"/>
	<path fill="none" stroke="#6b38fb" stroke-miterlimit="10" d="M0,304.709c0,0,153.506,299.292,623.559,49.958
		c384.211-124.725,628.237-443.169,942.991-46.382"/>
	<path fill="none" stroke="#6b38fb" stroke-miterlimit="10" d="M0,329.747c0,0,173.466,296.061,636.712,13.614
		c348.79-116.301,603.662-447.9,929.838-16.845"/>
	<path fill="none" stroke="#6b38fb" stroke-miterlimit="10" d="M0,354.784c0,0,193.426,292.83,649.865-22.73
		c313.368-107.879,579.086-452.631,916.685,12.691"/>
	<path fill="none" stroke="#6b38fb" stroke-miterlimit="10" d="M0,379.821c0,0,213.387,289.6,663.018-59.075
		c277.948-99.457,554.511-457.362,903.532,42.228"/>
	<path fill="none" stroke="#6b38fb" stroke-miterlimit="10" d="M0,404.858c0,0,233.348,286.37,676.171-95.419
		c242.526-91.034,529.935-462.092,890.378,71.766"/>
	<path fill="none" stroke="#6b38fb" stroke-miterlimit="10" d="M0,429.896c0,0,253.308,283.14,689.324-131.763
		c207.105-82.611,505.359-466.822,877.226,101.302"/>
	<path fill="none" stroke="#6b38fb" stroke-miterlimit="10" d="M0,454.933c0,0,273.269,279.909,702.478-168.107
		c171.684-74.188,480.784-471.553,864.072,130.839"/>
	<path fill="none" stroke="#6b38fb" stroke-miterlimit="10" d="M0,479.971c0,0,293.229,276.678,715.631-204.453
		c136.263-65.766,456.209-476.284,850.919,160.376"/>
	<path fill="none" stroke="#6b38fb" stroke-miterlimit="10" d="M0,505.008c0,0,313.189,273.447,728.784-240.797
		c100.841-57.343,431.633-481.014,837.766,189.913"/>
	<path fill="none" stroke="#6b38fb" stroke-miterlimit="10" d="M0,530.045c0,0,333.15,270.217,741.937-277.141
		c65.42-48.92,407.058-485.744,824.613,219.45"/>
	<path fill="none" stroke="#6b38fb" stroke-miterlimit="10" d="M0,555.082c0,0,353.11,266.986,755.09-313.485
		c29.999-40.498,382.482-490.475,811.459,248.987"/>
</g>
</svg>
