<svg width="24" height="30" viewBox="0 0 24 30" fill="none" xmlns="http://www.w3.org/2000/svg">
<path fill-rule="evenodd" clip-rule="evenodd" d="M2.4 1.5C1.96007 1.5 1.5 1.88942 1.5 2.5V27.5C1.5 28.1106 1.96007 28.5 2.4 28.5H21.6C22.0399 28.5 22.5 28.1106 22.5 27.5V15V8H16.875C16.3918 8 16 7.60825 16 7.125V1.5H12H2.4ZM2.4 0C1.07452 0 0 1.11929 0 2.5V27.5C0 28.8807 1.07452 30 2.4 30H21.6C22.9255 30 24 28.8807 24 27.5V15V7.58984C24 7.33169 23.9002 7.08354 23.7214 6.89731L17.3953 0.307474C17.2067 0.111041 16.9462 0 16.6739 0H12H2.4ZM9 20.0568C9 20.8702 9.91937 21.3433 10.5812 20.8705L14.8608 17.8137C15.4191 17.4149 15.4191 16.5851 14.8608 16.1863L10.5812 13.1295C9.91937 12.6567 9 13.1298 9 13.9432V20.0568Z" fill="#1BD5B3"/>
</svg>
