<svg width="24" height="30" viewBox="0 0 24 30" fill="none" xmlns="http://www.w3.org/2000/svg">
<path fill-rule="evenodd" clip-rule="evenodd" d="M2.40002 1.5C1.96008 1.5 1.5 1.8894 1.5 2.5V27.5C1.5 28.1106 1.96008 28.5 2.40002 28.5H21.6C22.0399 28.5 22.5 28.1106 22.5 27.5V8H16.875C16.3917 8 16 7.60828 16 7.125V1.5H2.40002ZM2.40002 0C1.07452 0 0 1.11926 0 2.5V27.5C0 28.8807 1.07452 30 2.40002 30H21.6C22.9255 30 24 28.8807 24 27.5V7.58984C24 7.33167 23.9001 7.0835 23.7214 6.89734L17.3953 0.307495C17.2067 0.111084 16.9462 0 16.6738 0H2.40002ZM13.9494 18.0303C15.1207 18.0042 17.3787 18.1055 17.8972 19.1389C17.9982 19.3402 18.115 19.7543 17.7628 20.2662C17.5185 20.6213 17.176 20.8337 16.7723 20.8805C16.0683 20.962 15.2507 20.4999 14.7464 20.0472C14.6812 19.9901 14.2039 19.5691 13.5764 18.9473C12.4379 19.0042 11.2092 19.1998 10.1282 19.5265C9.85193 20.0502 9.57074 20.5383 9.29602 20.9668C8.90717 21.5734 8.53998 22.0497 8.20477 22.3827C7.27277 23.3082 6.4942 23.1053 6.13953 22.3527C5.92303 21.8931 5.96021 21.3644 6.23901 20.9381C6.94757 19.855 8.29657 19.1844 9.48462 18.7827C9.98279 17.8035 10.4561 16.7179 10.8282 15.6858C10.5323 15.2183 10.2974 14.7574 10.1647 14.3292C9.6369 12.6244 10.1247 11.3806 10.8517 11.0759C11.2682 10.9014 11.8679 10.9884 12.3023 11.7567C12.6478 12.3678 12.4921 13.6488 11.8398 15.5667C12.4452 16.4357 13.2578 17.3281 13.9494 18.0303ZM7.05188 22.0962C7.11322 22.0872 7.57904 21.9663 8.55078 20.4376C8.63342 20.3076 8.71667 20.1719 8.80017 20.0314C7.96906 20.4263 7.3526 20.9032 7.00952 21.4276C6.90369 21.5894 6.88898 21.798 6.97101 21.9722C7.00873 22.0521 7.03955 22.0852 7.05188 22.0962ZM11.2229 11.9049C11.2183 11.9049 11.2141 11.9056 11.2106 11.9072C10.9996 11.9956 10.6396 12.7675 11.0416 14.0656C11.0858 14.2084 11.144 14.3562 11.2144 14.5083C11.634 13.0669 11.607 12.3832 11.5015 12.1964C11.389 11.9974 11.2744 11.9049 11.2229 11.9049ZM11.4656 16.5918C11.224 17.2125 10.9528 17.8409 10.6667 18.4469C11.338 18.2893 12.0496 18.1731 12.7568 18.1033C12.3228 17.6376 11.872 17.1211 11.4656 16.5918ZM16.6662 19.9832C16.7593 19.9722 16.8818 19.9369 17.0039 19.7593C17.0519 19.6896 17.1033 19.5948 17.0754 19.5393C16.9777 19.3445 16.3228 19.0262 14.9189 18.9478L14.8891 18.946C15.1707 19.2096 15.3496 19.3671 15.3577 19.374L15.3626 19.3784C15.5565 19.5519 16.2135 20.0367 16.6662 19.9832Z" fill="#FF0000"/>
</svg>
