<svg width="24" height="30" viewBox="0 0 24 30" fill="none" xmlns="http://www.w3.org/2000/svg">
<path fill-rule="evenodd" clip-rule="evenodd" d="M2.4 1.5C1.96007 1.5 1.5 1.88942 1.5 2.5V27.5C1.5 28.1106 1.96007 28.5 2.4 28.5H21.6C22.0399 28.5 22.5 28.1106 22.5 27.5V15V8H16.875C16.3918 8 16 7.60825 16 7.125V1.5H12H2.4ZM2.4 0C1.07452 0 0 1.11929 0 2.5V27.5C0 28.8807 1.07452 30 2.4 30H21.6C22.9255 30 24 28.8807 24 27.5V15V7.58984C24 7.33169 23.9002 7.08354 23.7214 6.89731L17.3953 0.307474C17.2067 0.111041 16.9462 0 16.6739 0H12H2.4ZM11.6501 15.595L10.2575 13.1451L7 18.7524L8.36526 21.2495L11.6501 15.595ZM15.5244 21.3983L9.02348 21.3996L10.4837 18.8858L17 18.8867L15.5244 21.3983ZM13.7331 13.0083L16.9254 18.2561L13.9494 18.261L10.9201 13L13.7331 13.0083Z" fill="#6B38FB"/>
</svg>
