<svg width="114" height="22" viewBox="0 0 114 22" fill="none" xmlns="http://www.w3.org/2000/svg">
<path fill-rule="evenodd" clip-rule="evenodd" d="M72.8992 21.8642C72.5234 21.8642 72.1195 21.8099 71.6874 21.7012C71.2741 21.5745 70.9735 21.3481 70.7857 21.0222C70.3536 19.6099 69.9027 18.1613 69.433 16.6765C68.9634 15.1918 68.4937 13.7342 68.0241 12.3037C67.498 10.6198 66.9344 8.87243 66.3333 7.06173C65.7321 5.23292 65.1685 3.4856 64.6425 1.81975C64.5298 1.4214 64.5955 1.07737 64.8397 0.787654C65.084 0.479835 65.4315 0.253497 65.8824 0.108641C66.1642 0.0362135 66.4084 0 66.6151 0C67.2538 0 67.6671 0.307819 67.855 0.923456L69.9403 7.36049C70.1281 8.01235 70.3442 8.72757 70.5884 9.50617C70.8514 10.2848 71.1144 11.0815 71.3775 11.8963L72.1665 14.3407C72.4295 15.1374 72.6737 15.8798 72.8992 16.5679C73.2561 15.4272 73.6412 14.1959 74.0545 12.8741C74.4866 11.5342 74.9187 10.1761 75.3508 8.8C75.8017 7.42387 76.2432 6.06584 76.6753 4.72592C77.1073 3.3679 77.5113 2.10041 77.887 0.923456C78.0936 0.307819 78.4975 0 79.0987 0C79.3241 0 79.5872 0.0362135 79.8877 0.108641C80.921 0.380246 81.3249 0.950617 81.0995 1.81975C80.085 4.98848 79.0611 8.18436 78.0279 11.4074C76.9946 14.6305 75.9708 17.8354 74.9563 21.0222C74.806 21.3844 74.5242 21.6198 74.1109 21.7284C73.7164 21.8189 73.3125 21.8642 72.8992 21.8642ZM22.5875 20.642C22.5875 21.5111 22.0239 21.9457 20.8967 21.9457C19.7883 21.9457 19.2341 21.5111 19.2341 20.642V2.90617H14.3026C13.6263 2.90617 13.2694 2.44444 13.2318 1.52099C13.2318 0.615637 13.5887 0.162963 14.3026 0.162963H27.5189C28.2328 0.162963 28.571 0.615637 28.5334 1.52099C28.5334 2.44444 28.1952 2.90617 27.5189 2.90617H22.5875V20.642ZM39.0271 12.7926H36.8572C36.5379 12.7926 36.2842 12.6749 36.0964 12.4395C35.9273 12.186 35.8428 11.851 35.8428 11.4346C35.8428 10.5111 36.2373 10.0494 37.0263 10.0494H40.3233C41.0184 10.0494 41.5069 9.85926 41.7887 9.47901C42.0705 9.09876 42.2114 8.6823 42.2114 8.22963V4.72592C42.2114 4.27325 42.0705 3.85679 41.7887 3.47654C41.5069 3.0963 41.0184 2.90617 40.3233 2.90617H34.3774V20.6148C34.3774 21.484 33.8232 21.9185 32.7148 21.9185C31.6064 21.9185 31.0522 21.484 31.0522 20.6148V1.79259C31.0522 1.14074 31.2213 0.706172 31.5594 0.488888C31.9164 0.271604 32.3391 0.162963 32.8275 0.162963H41.0278C41.5163 0.162963 42.0235 0.262551 42.5495 0.461727C43.0756 0.660905 43.5828 0.914403 44.0713 1.22222H44.0431C44.5315 1.56625 44.9073 2.01893 45.1703 2.58025C45.4333 3.12346 45.5648 3.7572 45.5648 4.48148V8.44691C45.5648 9.91358 45.0575 11.0091 44.0431 11.7333C43.8364 11.8782 43.611 12.014 43.3668 12.1407C43.1413 12.2675 42.9065 12.3942 42.6623 12.521L47.171 19.6914C47.2274 19.7819 47.2837 19.8996 47.3401 20.0444C47.3965 20.1893 47.4246 20.307 47.4246 20.3975C47.4246 20.8321 47.1053 21.2486 46.4665 21.6469V21.6198C46.0344 21.8733 45.6681 22 45.3675 22C44.9354 22 44.5879 21.7918 44.3249 21.3753L44.3531 21.4025L39.0271 12.7926ZM50.435 21.2395C50.6793 21.5835 51.1489 21.7556 51.844 21.7556H62.1578C62.9093 21.7556 63.2662 21.2848 63.2287 20.3432C63.2099 19.456 62.8529 19.0123 62.1578 19.0123H53.3939V2.90617H61.6506C62.4208 2.90617 62.7872 2.44444 62.7496 1.52099C62.712 0.615637 62.3457 0.162963 61.6506 0.162963H51.844C51.1489 0.162963 50.6793 0.334979 50.435 0.679012C50.1908 1.00494 50.0687 1.37613 50.0687 1.79259V20.0988C50.0687 20.5152 50.1908 20.8955 50.435 21.2395ZM59.9034 12.1136C60.3731 11.679 60.6079 11.1449 60.6079 10.5111C60.6079 9.87737 60.3731 9.34321 59.9034 8.90864C59.4526 8.47407 58.8984 8.25679 58.2408 8.25679C57.6021 8.25679 57.0573 8.47407 56.6064 8.90864C56.1555 9.34321 55.9301 9.87737 55.9301 10.5111C55.9301 11.1449 56.1555 11.679 56.6064 12.1136C57.0573 12.5481 57.6021 12.7654 58.2408 12.7654C58.8984 12.7654 59.4526 12.5481 59.9034 12.1136ZM85.0191 21.0765L91.1905 2.82469L97.39 21.0765V21.0494C97.484 21.321 97.6343 21.5473 97.8409 21.7284C98.0663 21.8914 98.3106 21.9728 98.5736 21.9728C98.7239 21.9728 98.8554 21.9547 98.9681 21.9185C99.0996 21.9004 99.2405 21.8733 99.3908 21.837C100.443 21.5111 100.837 20.9317 100.574 20.0988C99.5223 16.9844 98.4515 13.8519 97.3618 10.7012C96.291 7.53251 95.2296 4.39095 94.1775 1.27654C94.046 1.04115 93.8488 0.805761 93.5858 0.57037C93.3415 0.334978 93.0879 0.199176 92.8249 0.162963C92.5055 0.126748 92.1956 0.0995873 91.895 0.0814806C91.5944 0.0452671 91.3596 0.0271603 91.1905 0.0271603C91.0214 0.0271603 90.7866 0.0452671 90.486 0.0814806C90.1854 0.0995873 89.8754 0.135801 89.5561 0.190123C89.2367 0.226337 88.9549 0.344033 88.7107 0.543209C88.4852 0.742386 88.3255 0.986831 88.2316 1.27654L81.8066 20.0988C81.5248 20.9317 81.9193 21.5111 82.9902 21.837H82.962C83.1123 21.8733 83.2532 21.9004 83.3847 21.9185C83.535 21.9547 83.6853 21.9728 83.8356 21.9728C84.1174 21.9728 84.3522 21.8914 84.5401 21.7284C84.7467 21.5473 84.9064 21.321 85.0191 21.0494V21.0765ZM92.6558 16.7037C93.0879 16.2872 93.304 15.7893 93.304 15.2099C93.304 14.6305 93.0879 14.1416 92.6558 13.7432C92.2425 13.3267 91.7353 13.1185 91.1341 13.1185C90.5329 13.1185 90.0257 13.3267 89.6124 13.7432C89.1991 14.1416 88.9925 14.6305 88.9925 15.2099C88.9925 15.7893 89.1991 16.2872 89.6124 16.7037C90.0257 17.1021 90.5329 17.3012 91.1341 17.3012C91.7353 17.3012 92.2425 17.1021 92.6558 16.7037ZM0 11.852C0 9.12464 2.29391 6.9137 5.1236 6.9137V16.7902C2.29391 16.7902 0 14.5793 0 11.852ZM114 11.852C114 14.5793 111.706 16.7902 108.876 16.7902V6.9137C111.706 6.9137 114 9.12464 114 11.852Z" fill="white"/>
</svg>
