<svg width="120" height="40" viewBox="0 0 120 40" fill="none" xmlns="http://www.w3.org/2000/svg">
<g clip-path="url(#clip0)">
<path d="M110.135 0.00013H9.53468C9.16798 0.00013 8.80568 0.00013 8.43995 0.00213C8.1338 0.00413 7.83009 0.00994 7.521 0.01483C6.84951 0.0227318 6.17961 0.0818063 5.5171 0.19154C4.85552 0.303663 4.21467 0.515046 3.61622 0.81854C3.0185 1.1246 2.47235 1.5223 1.99757 1.9972C1.5203 2.47077 1.12246 3.01815 0.81935 3.61829C0.5154 4.21724 0.304641 4.85907 0.19435 5.52161C0.0830109 6.18332 0.0230984 6.85265 0.01515 7.52361C0.00587 7.83021 0.00489 8.13783 0 8.44447V31.5587C0.00489 31.8692 0.00587 32.17 0.01515 32.4806C0.0231008 33.1516 0.0830134 33.8209 0.19435 34.4825C0.304336 35.1455 0.515108 35.7877 0.81935 36.3868C1.12233 36.985 1.52022 37.5302 1.99757 38.0011C2.47054 38.4781 3.01705 38.8761 3.61622 39.1798C4.21467 39.4841 4.85545 39.6968 5.5171 39.8106C6.17972 39.9195 6.84956 39.9786 7.521 39.9874C7.83009 39.9942 8.1338 39.9981 8.43995 39.9981C8.80567 40.0001 9.168 40.0001 9.53468 40.0001H110.135C110.494 40.0001 110.859 40.0001 111.219 39.9981C111.523 39.9981 111.836 39.9942 112.141 39.9874C112.811 39.9791 113.479 39.92 114.141 39.8106C114.804 39.696 115.448 39.4834 116.049 39.1798C116.647 38.8759 117.193 38.478 117.666 38.0011C118.142 37.5284 118.541 36.9836 118.848 36.3868C119.15 35.7872 119.358 35.1451 119.467 34.4825C119.578 33.8208 119.64 33.1516 119.652 32.4806C119.656 32.17 119.656 31.8692 119.656 31.5587C119.664 31.1954 119.664 30.8341 119.664 30.4649V9.53626C119.664 9.17005 119.664 8.80677 119.656 8.44447C119.656 8.13783 119.656 7.83021 119.652 7.52357C119.64 6.85255 119.578 6.18337 119.467 5.52157C119.358 4.85941 119.149 4.21763 118.848 3.61825C118.23 2.41533 117.252 1.43616 116.049 0.81845C115.448 0.515697 114.804 0.30437 114.141 0.19145C113.48 0.0812328 112.811 0.0221378 112.141 0.01469C111.836 0.00981 111.523 0.00395 111.219 0.002C110.859 0 110.494 0 110.135 0V0.00013Z" fill="#A6A6A6"/>
<path d="M8.44487 39.125C8.14019 39.125 7.84287 39.1211 7.54058 39.1143C6.91436 39.1061 6.2896 39.0516 5.67144 38.9512C5.09503 38.8519 4.53664 38.6673 4.0147 38.4033C3.49754 38.1415 3.02585 37.7983 2.6177 37.3867C2.20364 36.98 1.85891 36.5082 1.59719 35.9902C1.33258 35.4688 1.14945 34.9099 1.05419 34.333C0.951311 33.7131 0.895651 33.0863 0.887687 32.458C0.881347 32.2471 0.873047 31.5449 0.873047 31.5449V8.44434C0.873047 8.44434 0.881887 7.75293 0.887737 7.5498C0.895363 6.92248 0.950699 6.29665 1.05327 5.67773C1.14871 5.09925 1.33197 4.53875 1.59673 4.01563C1.85749 3.49794 2.2003 3.02586 2.61187 2.61768C3.02297 2.20562 3.49617 1.8606 4.01421 1.59521C4.53495 1.33209 5.09228 1.14873 5.66753 1.05127C6.28772 0.949836 6.91465 0.894996 7.54304 0.88721L8.44536 0.875H111.214L112.127 0.8877C112.75 0.895099 113.371 0.94945 113.985 1.05029C114.566 1.14898 115.13 1.33362 115.656 1.59814C116.694 2.13299 117.539 2.97916 118.071 4.01807C118.332 4.53758 118.512 5.09351 118.607 5.66699C118.71 6.29099 118.768 6.92174 118.78 7.5542C118.783 7.8374 118.783 8.1416 118.783 8.44434C118.791 8.81934 118.791 9.17627 118.791 9.53613V30.4648C118.791 30.8281 118.791 31.1826 118.783 31.54C118.783 31.8652 118.783 32.1631 118.779 32.4697C118.768 33.0909 118.711 33.7104 118.608 34.3232C118.515 34.9043 118.333 35.4675 118.068 35.9932C117.805 36.5056 117.462 36.9733 117.053 37.3789C116.644 37.7927 116.172 38.1379 115.653 38.4014C115.128 38.6674 114.566 38.8527 113.985 38.9512C113.367 39.0522 112.742 39.1067 112.116 39.1143C111.823 39.1211 111.517 39.125 111.219 39.125L110.135 39.127L8.44487 39.125Z" fill="black"/>
<path d="M24.769 20.3003C24.7797 19.4657 25.0014 18.6473 25.4135 17.9213C25.8255 17.1954 26.4145 16.5854 27.1256 16.1483C26.6738 15.5031 26.0779 14.9722 25.385 14.5976C24.6922 14.2231 23.9216 14.0152 23.1344 13.9906C21.4552 13.8143 19.8272 14.9954 18.9715 14.9954C18.0992 14.9954 16.7817 14.0081 15.363 14.0373C14.4453 14.0669 13.551 14.3338 12.7671 14.8118C11.9832 15.2899 11.3365 15.9629 10.8901 16.7651C8.95607 20.1136 10.3987 25.0346 12.2513 27.7412C13.1782 29.0666 14.2615 30.547 15.6789 30.4945C17.066 30.437 17.584 29.61 19.2583 29.61C20.9171 29.61 21.4031 30.4945 22.8493 30.4611C24.3377 30.437 25.2754 29.1299 26.1698 27.792C26.8358 26.8476 27.3483 25.8039 27.6882 24.6995C26.8235 24.3338 26.0856 23.7216 25.5665 22.9393C25.0474 22.157 24.77 21.2392 24.769 20.3003Z" fill="white"/>
<path d="M22.0376 12.2094C22.8491 11.2352 23.2489 9.98298 23.1521 8.71875C21.9123 8.84897 20.767 9.44153 19.9445 10.3784C19.5424 10.836 19.2344 11.3685 19.0381 11.9452C18.8419 12.522 18.7612 13.1318 18.8008 13.7397C19.4209 13.7461 20.0344 13.6117 20.5951 13.3466C21.1558 13.0815 21.649 12.6927 22.0376 12.2094Z" fill="white"/>
<path d="M42.3022 27.1397H37.5688L36.4321 30.4961H34.4272L38.9106 18.0781H40.9936L45.477 30.4961H43.438L42.3022 27.1397ZM38.0591 25.5908H41.8111L39.9615 20.1436H39.9097L38.0591 25.5908Z" fill="white"/>
<path d="M55.1597 25.9714C55.1597 28.7849 53.6538 30.5925 51.3814 30.5925C50.8057 30.6226 50.2332 30.49 49.7294 30.2099C49.2256 29.9297 48.8109 29.5134 48.5327 29.0085H48.4897V33.4929H46.6313V21.4441H48.4302V22.9499H48.4644C48.7553 22.4475 49.1771 22.0333 49.6847 21.7514C50.1923 21.4696 50.7669 21.3306 51.3472 21.3493C53.645 21.3493 55.1597 23.1657 55.1597 25.9714ZM53.2495 25.9714C53.2495 24.1384 52.3023 22.9333 50.857 22.9333C49.437 22.9333 48.482 24.1638 48.482 25.9714C48.482 27.7956 49.437 29.0173 50.857 29.0173C52.3023 29.0173 53.2495 27.821 53.2495 25.9714Z" fill="white"/>
<path d="M65.1245 25.9714C65.1245 28.7849 63.6187 30.5925 61.3462 30.5925C60.7706 30.6226 60.1981 30.49 59.6943 30.2099C59.1905 29.9297 58.7758 29.5134 58.4976 29.0085H58.4546V33.4929H56.5962V21.444H58.395V22.9499H58.4292C58.7201 22.4474 59.1419 22.0333 59.6495 21.7514C60.1571 21.4696 60.7317 21.3306 61.312 21.3493C63.6099 21.3493 65.1245 23.1657 65.1245 25.9714ZM63.2144 25.9714C63.2144 24.1384 62.2671 22.9333 60.8218 22.9333C59.4019 22.9333 58.4468 24.1638 58.4468 25.9714C58.4468 27.7956 59.4019 29.0173 60.8218 29.0173C62.2671 29.0173 63.2144 27.821 63.2144 25.9714H63.2144Z" fill="white"/>
<path d="M71.7105 27.0362C71.8482 28.2676 73.0445 29.0762 74.6792 29.0762C76.2456 29.0762 77.3726 28.2676 77.3726 27.1572C77.3726 26.1934 76.6929 25.6162 75.0835 25.2207L73.4742 24.833C71.1939 24.2822 70.1353 23.2158 70.1353 21.4854C70.1353 19.3428 72.0025 17.8711 74.6538 17.8711C77.2778 17.8711 79.0767 19.3428 79.1372 21.4854H77.2612C77.1489 20.2461 76.1245 19.4981 74.6274 19.4981C73.1304 19.4981 72.106 20.2549 72.106 21.3565C72.106 22.2344 72.7603 22.751 74.3608 23.1465L75.729 23.4824C78.2769 24.0849 79.3355 25.1084 79.3355 26.9248C79.3355 29.248 77.4849 30.7031 74.5415 30.7031C71.7876 30.7031 69.9282 29.2822 69.8081 27.0361L71.7105 27.0362Z" fill="white"/>
<path d="M83.3462 19.3008V21.4434H85.0679V22.915H83.3462V27.9062C83.3462 28.6816 83.6909 29.043 84.4477 29.043C84.6521 29.0394 84.8562 29.0251 85.0591 29V30.4629C84.7188 30.5264 84.3729 30.5552 84.0268 30.5488C82.1938 30.5488 81.479 29.8603 81.479 28.1045V22.915H80.1626V21.4434H81.479V19.3008H83.3462Z" fill="white"/>
<path d="M86.0649 25.9707C86.0649 23.1221 87.7427 21.332 90.3589 21.332C92.9839 21.332 94.6538 23.122 94.6538 25.9707C94.6538 28.8272 92.9927 30.6094 90.3589 30.6094C87.726 30.6094 86.0649 28.8271 86.0649 25.9707ZM92.7602 25.9707C92.7602 24.0166 91.8647 22.8633 90.3589 22.8633C88.853 22.8633 87.9585 24.0254 87.9585 25.9707C87.9585 27.9326 88.853 29.0772 90.3589 29.0772C91.8647 29.0772 92.7602 27.9326 92.7602 25.9707H92.7602Z" fill="white"/>
<path d="M96.186 21.444H97.9585V22.985H98.0015C98.1214 22.5037 98.4034 22.0784 98.8 21.7805C99.1966 21.4826 99.6836 21.3303 100.179 21.3492C100.393 21.3485 100.607 21.3717 100.816 21.4186V23.1569C100.546 23.0742 100.264 23.0363 99.981 23.0445C99.711 23.0336 99.4418 23.0812 99.192 23.1841C98.9421 23.287 98.7175 23.4427 98.5335 23.6406C98.3496 23.8385 98.2106 24.0738 98.1262 24.3305C98.0417 24.5872 98.0139 24.8591 98.0444 25.1275V30.4977H96.186L96.186 21.444Z" fill="white"/>
<path d="M109.384 27.8379C109.134 29.4814 107.534 30.6094 105.486 30.6094C102.852 30.6094 101.217 28.8447 101.217 26.0137C101.217 23.1738 102.861 21.332 105.408 21.332C107.913 21.332 109.488 23.0527 109.488 25.7978V26.4346H103.093V26.5469C103.064 26.8801 103.105 27.2157 103.216 27.5316C103.326 27.8474 103.502 28.1362 103.732 28.3787C103.963 28.6213 104.242 28.8121 104.552 28.9384C104.861 29.0647 105.195 29.1236 105.529 29.1113C105.968 29.1525 106.409 29.0508 106.785 28.8213C107.162 28.5919 107.455 28.247 107.62 27.8379L109.384 27.8379ZM103.102 25.1357H107.628C107.645 24.8361 107.6 24.5363 107.495 24.2551C107.39 23.9739 107.229 23.7174 107.02 23.5016C106.812 23.2858 106.561 23.1155 106.283 23.0013C106.006 22.8871 105.708 22.8314 105.408 22.8379C105.105 22.8361 104.805 22.8942 104.525 23.009C104.245 23.1237 103.99 23.2928 103.776 23.5064C103.562 23.72 103.392 23.974 103.276 24.2537C103.16 24.5333 103.101 24.8331 103.102 25.1357V25.1357Z" fill="white"/>
<path d="M37.8262 8.73333C38.2158 8.70537 38.6067 8.76423 38.9709 8.90567C39.335 9.0471 39.6632 9.26758 39.9317 9.55121C40.2003 9.83483 40.4026 10.1745 40.524 10.5458C40.6454 10.9171 40.6829 11.3107 40.6338 11.6982C40.6338 13.6044 39.6035 14.7002 37.8262 14.7002H35.6709V8.73333H37.8262ZM36.5976 13.8563H37.7226C38.0011 13.873 38.2797 13.8273 38.5382 13.7227C38.7967 13.6181 39.0287 13.4571 39.2172 13.2516C39.4057 13.046 39.546 12.801 39.6278 12.5344C39.7097 12.2678 39.7311 11.9863 39.6904 11.7103C39.7281 11.4355 39.7046 11.1557 39.6215 10.8911C39.5383 10.6264 39.3977 10.3834 39.2096 10.1795C39.0216 9.97554 38.7907 9.81573 38.5337 9.71149C38.2766 9.60726 37.9996 9.56117 37.7226 9.57654H36.5976V13.8563Z" fill="white"/>
<path d="M41.6805 12.4458C41.6521 12.1498 41.686 11.8513 41.7798 11.5692C41.8737 11.2871 42.0254 11.0278 42.2254 10.8078C42.4253 10.5878 42.669 10.4121 42.9409 10.2918C43.2127 10.1715 43.5067 10.1094 43.804 10.1094C44.1013 10.1094 44.3952 10.1715 44.6671 10.2918C44.939 10.4121 45.1827 10.5878 45.3826 10.8078C45.5825 11.0278 45.7343 11.2871 45.8281 11.5692C45.922 11.8513 45.9558 12.1498 45.9275 12.4458C45.9564 12.742 45.9229 13.041 45.8293 13.3235C45.7357 13.606 45.5841 13.8658 45.3841 14.0862C45.1841 14.3067 44.9402 14.4828 44.6681 14.6033C44.3959 14.7239 44.1016 14.7861 43.804 14.7861C43.5064 14.7861 43.212 14.7239 42.9399 14.6033C42.6678 14.4828 42.4239 14.3067 42.2239 14.0862C42.0239 13.8658 41.8722 13.606 41.7786 13.3235C41.6851 13.041 41.6516 12.742 41.6805 12.4458ZM45.0135 12.4458C45.0135 11.4697 44.575 10.8989 43.8055 10.8989C43.033 10.8989 42.5985 11.4697 42.5985 12.4458C42.5985 13.4297 43.033 13.9961 43.8055 13.9961C44.575 13.996 45.0135 13.4257 45.0135 12.4458H45.0135Z" fill="white"/>
<path d="M51.5732 14.6982H50.6514L49.7207 11.3818H49.6504L48.7236 14.6982H47.8105L46.5693 10.1953H47.4707L48.2773 13.6313H48.3438L49.2695 10.1953H50.1221L51.0479 13.6313H51.1182L51.9209 10.1953H52.8096L51.5732 14.6982Z" fill="white"/>
<path d="M53.8535 10.1968H54.709V10.9122H54.7754C54.888 10.6552 55.0781 10.4399 55.3189 10.2961C55.5598 10.1522 55.8395 10.0872 56.1191 10.1099C56.3382 10.0934 56.5582 10.1265 56.7628 10.2066C56.9674 10.2867 57.1514 10.4118 57.3011 10.5726C57.4508 10.7334 57.5623 10.9259 57.6275 11.1357C57.6927 11.3455 57.7099 11.5674 57.6777 11.7847V14.6997H56.7891V12.0079C56.7891 11.2842 56.4746 10.9244 55.8174 10.9244C55.6686 10.9174 55.5201 10.9428 55.3821 10.9986C55.244 11.0544 55.1197 11.1394 55.0175 11.2478C54.9154 11.3562 54.8379 11.4854 54.7904 11.6265C54.7429 11.7676 54.7264 11.9174 54.7422 12.0655V14.6998H53.8535L53.8535 10.1968Z" fill="white"/>
<path d="M59.0938 8.4375H59.9824V14.6982H59.0938V8.4375Z" fill="white"/>
<path d="M61.2175 12.4458C61.1893 12.1499 61.2231 11.8513 61.317 11.5692C61.4109 11.2872 61.5626 11.0278 61.7626 10.8078C61.9626 10.5878 62.2063 10.4121 62.4782 10.2918C62.75 10.1715 63.044 10.1094 63.3413 10.1094C63.6386 10.1094 63.9326 10.1715 64.2045 10.2918C64.4764 10.4121 64.7201 10.5878 64.92 10.8078C65.12 11.0278 65.2718 11.2872 65.3656 11.5692C65.4595 11.8513 65.4934 12.1499 65.4651 12.4458C65.4939 12.7421 65.4604 13.0411 65.3668 13.3236C65.2732 13.6061 65.1215 13.8659 64.9215 14.0863C64.7215 14.3067 64.4776 14.4829 64.2054 14.6034C63.9333 14.7239 63.639 14.7862 63.3413 14.7862C63.0437 14.7862 62.7493 14.7239 62.4772 14.6034C62.2051 14.4829 61.9612 14.3067 61.7612 14.0863C61.5611 13.8659 61.4095 13.6061 61.3158 13.3236C61.2222 13.0411 61.1887 12.7421 61.2175 12.4458ZM64.5505 12.4458C64.5505 11.4698 64.1121 10.899 63.3425 10.899C62.5701 10.899 62.1355 11.4698 62.1355 12.4458C62.1355 13.4297 62.5701 13.9961 63.3425 13.9961C64.1121 13.9961 64.5505 13.4258 64.5505 12.4458H64.5505Z" fill="white"/>
<path d="M66.4009 13.4258C66.4009 12.6152 67.0044 12.1479 68.0757 12.0815L69.2954 12.0112V11.6226C69.2954 11.147 68.981 10.8784 68.3735 10.8784C67.8774 10.8784 67.5337 11.0605 67.4351 11.3789H66.5747C66.6655 10.6055 67.3931 10.1094 68.4146 10.1094C69.5435 10.1094 70.1802 10.6714 70.1802 11.6226V14.6992H69.3247V14.0664H69.2544C69.1117 14.2934 68.9113 14.4784 68.6737 14.6027C68.436 14.7269 68.1697 14.7858 67.9019 14.7734C67.7128 14.7931 67.5218 14.7729 67.341 14.7142C67.1602 14.6555 66.9938 14.5596 66.8524 14.4326C66.711 14.3056 66.5977 14.1504 66.52 13.977C66.4422 13.8036 66.4016 13.6158 66.4009 13.4258ZM69.2954 13.041V12.6645L68.1958 12.7349C67.5757 12.7764 67.2944 12.9873 67.2944 13.3843C67.2944 13.7895 67.646 14.0254 68.1294 14.0254C68.2711 14.0397 68.4142 14.0254 68.5502 13.9833C68.6862 13.9412 68.8123 13.8722 68.9211 13.7804C69.0299 13.6885 69.1191 13.5757 69.1834 13.4487C69.2477 13.3217 69.2858 13.183 69.2954 13.041Z" fill="white"/>
<path d="M71.3481 12.4448C71.3481 11.022 72.0796 10.1206 73.2173 10.1206C73.4987 10.1077 73.778 10.1751 74.0225 10.315C74.267 10.4548 74.4667 10.6615 74.5981 10.9106H74.6646V8.4375H75.5532V14.6982H74.7017V13.9868H74.6314C74.4897 14.2343 74.2831 14.4383 74.0339 14.5768C73.7846 14.7153 73.5022 14.783 73.2173 14.7724C72.0718 14.7725 71.3481 13.8711 71.3481 12.4448ZM72.2661 12.4448C72.2661 13.3999 72.7163 13.9746 73.4693 13.9746C74.2183 13.9746 74.6812 13.3916 74.6812 12.4487C74.6812 11.5103 74.2134 10.919 73.4693 10.919C72.7212 10.919 72.2661 11.4976 72.2661 12.4448H72.2661Z" fill="white"/>
<path d="M79.2298 12.4458C79.2015 12.1498 79.2353 11.8513 79.3292 11.5692C79.423 11.2871 79.5748 11.0278 79.7747 10.8078C79.9746 10.5878 80.2183 10.4121 80.4902 10.2918C80.762 10.1715 81.056 10.1094 81.3533 10.1094C81.6506 10.1094 81.9446 10.1715 82.2164 10.2918C82.4883 10.4121 82.732 10.5878 82.9319 10.8078C83.1319 11.0278 83.2836 11.2871 83.3775 11.5692C83.4713 11.8513 83.5052 12.1498 83.4768 12.4458C83.5057 12.742 83.4722 13.041 83.3786 13.3235C83.2851 13.606 83.1334 13.8658 82.9334 14.0862C82.7334 14.3067 82.4895 14.4828 82.2174 14.6033C81.9453 14.7239 81.6509 14.7861 81.3533 14.7861C81.0557 14.7861 80.7613 14.7239 80.4892 14.6033C80.2171 14.4828 79.9732 14.3067 79.7732 14.0862C79.5732 13.8658 79.4216 13.606 79.328 13.3235C79.2344 13.041 79.2009 12.742 79.2298 12.4458ZM82.5628 12.4458C82.5628 11.4697 82.1243 10.8989 81.3548 10.8989C80.5823 10.8989 80.1478 11.4697 80.1478 12.4458C80.1478 13.4297 80.5823 13.9961 81.3548 13.9961C82.1243 13.996 82.5628 13.4257 82.5628 12.4458Z" fill="white"/>
<path d="M84.6694 10.1968H85.5249V10.9122H85.5913C85.704 10.6552 85.894 10.4399 86.1348 10.2961C86.3757 10.1522 86.6555 10.0872 86.9351 10.1099C87.1542 10.0934 87.3742 10.1265 87.5788 10.2066C87.7834 10.2867 87.9673 10.4118 88.117 10.5726C88.2667 10.7334 88.3783 10.9259 88.4435 11.1357C88.5087 11.3455 88.5258 11.5674 88.4937 11.7847V14.6997H87.605V12.0079C87.605 11.2842 87.2905 10.9244 86.6333 10.9244C86.4846 10.9174 86.336 10.9428 86.198 10.9986C86.0599 11.0544 85.9356 11.1394 85.8335 11.2478C85.7313 11.3562 85.6539 11.4854 85.6063 11.6265C85.5588 11.7676 85.5423 11.9174 85.5581 12.0655V14.6998H84.6694V10.1968Z" fill="white"/>
<path d="M93.5151 9.07422V10.2158H94.4907V10.9644H93.5151V13.2798C93.5151 13.7515 93.7095 13.958 94.1519 13.958C94.2651 13.9576 94.3783 13.9508 94.4907 13.9375V14.6777C94.3311 14.7063 94.1694 14.7215 94.0073 14.7231C93.019 14.7231 92.6255 14.3755 92.6255 13.5073V10.9643H91.9106V10.2158H92.6255V9.07422H93.5151Z" fill="white"/>
<path d="M95.7046 8.4375H96.5854V10.919H96.6558C96.7739 10.6596 96.9691 10.443 97.2148 10.2987C97.4605 10.1543 97.7447 10.0893 98.0288 10.1123C98.2467 10.1004 98.4646 10.1368 98.6669 10.2189C98.8692 10.3009 99.0508 10.4266 99.199 10.5869C99.3471 10.7473 99.458 10.9383 99.5238 11.1465C99.5896 11.3546 99.6086 11.5747 99.5795 11.791V14.6982H98.69V12.0103C98.69 11.291 98.355 10.9268 97.7271 10.9268C97.5743 10.9142 97.4207 10.9352 97.2769 10.9883C97.1332 11.0413 97.0027 11.1252 96.8947 11.2339C96.7867 11.3426 96.7038 11.4737 96.6517 11.6178C96.5997 11.7619 96.5797 11.9157 96.5933 12.0683V14.6982H95.7046L95.7046 8.4375Z" fill="white"/>
<path d="M104.761 13.4835C104.641 13.895 104.379 14.251 104.022 14.4891C103.666 14.7273 103.237 14.8324 102.81 14.7862C102.514 14.794 102.219 14.7372 101.946 14.6197C101.674 14.5022 101.43 14.3267 101.232 14.1056C101.034 13.8845 100.887 13.6229 100.8 13.3391C100.713 13.0553 100.69 12.756 100.73 12.462C100.691 12.1671 100.715 11.8672 100.801 11.5825C100.888 11.2978 101.035 11.0351 101.231 10.812C101.428 10.5889 101.671 10.4107 101.943 10.2895C102.214 10.1683 102.509 10.1069 102.806 10.1095C104.059 10.1095 104.815 10.9655 104.815 12.3795V12.6895H101.635V12.7393C101.621 12.9046 101.642 13.0709 101.696 13.2277C101.751 13.3844 101.837 13.5281 101.95 13.6496C102.063 13.771 102.2 13.8676 102.352 13.933C102.504 13.9984 102.669 14.0312 102.835 14.0293C103.047 14.0549 103.263 14.0166 103.453 13.9194C103.644 13.8222 103.802 13.6704 103.906 13.4834L104.761 13.4835ZM101.635 12.0323H103.91C103.921 11.8812 103.9 11.7294 103.85 11.5867C103.799 11.4439 103.718 11.3135 103.614 11.2036C103.51 11.0937 103.383 11.0069 103.243 10.9488C103.103 10.8906 102.953 10.8623 102.801 10.8658C102.648 10.8639 102.495 10.8927 102.353 10.9507C102.21 11.0086 102.081 11.0945 101.972 11.2032C101.864 11.3119 101.778 11.4413 101.72 11.5837C101.662 11.7261 101.633 11.8786 101.635 12.0323H101.635Z" fill="white"/>
</g>
<defs>
<clipPath id="clip0">
<rect width="119.664" height="40" fill="white"/>
</clipPath>
</defs>
</svg>
